[Header]
FileType HTR
DataType HTRS
FileVersion 1
NumSegments 64
NumFrames 4
DataFrameRate 30
EulerRotationOrder ZYX
CalibrationUnits mm
RotationUnits Degrees
GlobalAxisofGravity Y
BoneLengthAxis Y
ScaleFactor 1.0
[SegmentNames&Hierarchy]
Hips	GLOBAL
Spine	Hips
Spine1	Spine
Spine2	Spine1
Neck	Spine2
Head	Neck
LeftEye	Head
RightEye	Head
LeftShoulder	Spine2
LeftArm	LeftShoulder
LeftForeArm	LeftArm
LeftHand	LeftForeArm
LeftHandThumb1	LeftHand
LeftHandThumb2	LeftHandThumb1
LeftHandThumb3	LeftHandThumb2
LeftHandThumb4	LeftHandThumb3
LeftHandIndex1	LeftHand
LeftHandIndex2	LeftHandIndex1
LeftHandIndex3	LeftHandIndex2
LeftHandIndex4	LeftHandIndex3
LeftHandMiddle1	LeftHand
LeftHandMiddle2	LeftHandMiddle1
LeftHandMiddle3	LeftHandMiddle2
LeftHandMiddle4	LeftHandMiddle3
LeftHandRing1	LeftHand
LeftHandRing2	LeftHandRing1
LeftHandRing3	LeftHandRing2
LeftHandRing4	LeftHandRing3
LeftHandPinky1	LeftHand
LeftHandPinky2	LeftHandPinky1
LeftHandPinky3	LeftHandPinky2
LeftHandPinky4	LeftHandPinky3
RightShoulder	Spine2
RightArm	RightShoulder
RightForeArm	RightArm
RightHand	RightForeArm
RightHandPinky1	RightHand
RightHandPinky2	RightHandPinky1
RightHandPinky3	RightHandPinky2
RightHandPinky4	RightHandPinky3
RightHandRing1	RightHand
RightHandRing2	RightHandRing1
RightHandRing3	RightHandRing2
RightHandRing4	RightHandRing3
RightHandMiddle1	RightHand
RightHandMiddle2	RightHandMiddle1
RightHandMiddle3	RightHandMiddle2
RightHandMiddle4	RightHandMiddle3
RightHandIndex1	RightHand
RightHandIndex2	RightHandIndex1
RightHandIndex3	RightHandIndex2
RightHandIndex4	RightHandIndex3
RightHandThumb1	RightHand
RightHandThumb2	RightHandThumb1
RightHandThumb3	RightHandThumb2
RightHandThumb4	RightHandThumb3
LeftUpLeg	Hips
LeftLeg	LeftUpLeg
LeftFoot	LeftLeg
LeftToeBase	LeftFoot
RightUpLeg	Hips
RightLeg	RightUpLeg
RightFoot	RightLeg
RightToeBase	RightFoot
[BasePosition]
Hips	0	0	0	0	0	0	1
Spine	0	0	0	0	0	0	1
Spine1	0	0	0	0	0	0	1
Spine2	0	0	0	0	0	0	1
Neck	0	0	0	0	0	0	1
Head	0	0	0	0	0	0	1
LeftEye	0	0	0	0	0	0	1
RightEye	0	0	0	0	0	0	1
LeftShoulder	0	0	0	0	0	0	1
LeftArm	0	0	0	0	0	0	1
LeftForeArm	0	0	0	0	0	0	1
LeftHand	0	0	0	0	0	0	1
LeftHandThumb1	0	0	0	0	0	0	1
LeftHandThumb2	0	0	0	0	0	0	1
LeftHandThumb3	0	0	0	0	0	0	1
LeftHandThumb4	0	0	0	0	0	0	1
LeftHandIndex1	0	0	0	0	0	0	1
LeftHandIndex2	0	0	0	0	0	0	1
LeftHandIndex3	0	0	0	0	0	0	1
LeftHandIndex4	0	0	0	0	0	0	1
LeftHandMiddle1	0	0	0	0	0	0	1
LeftHandMiddle2	0	0	0	0	0	0	1
LeftHandMiddle3	0	0	0	0	0	0	1
LeftHandMiddle4	0	0	0	0	0	0	1
LeftHandRing1	0	0	0	0	0	0	1
LeftHandRing2	0	0	0	0	0	0	1
LeftHandRing3	0	0	0	0	0	0	1
LeftHandRing4	0	0	0	0	0	0	1
LeftHandPinky1	0	0	0	0	0	0	1
LeftHandPinky2	0	0	0	0	0	0	1
LeftHandPinky3	0	0	0	0	0	0	1
LeftHandPinky4	0	0	0	0	0	0	1
RightShoulder	0	0	0	0	0	0	1
RightArm	0	0	0	0	0	0	1
RightForeArm	0	0	0	0	0	0	1
RightHand	0	0	0	0	0	0	1
RightHandPinky1	0	0	0	0	0	0	1
RightHandPinky2	0	0	0	0	0	0	1
RightHandPinky3	0	0	0	0	0	0	1
RightHandPinky4	0	0	0	0	0	0	1
RightHandRing1	0	0	0	0	0	0	1
RightHandRing2	0	0	0	0	0	0	1
RightHandRing3	0	0	0	0	0	0	1
RightHandRing4	0	0	0	0	0	0	1
RightHandMiddle1	0	0	0	0	0	0	1
RightHandMiddle2	0	0	0	0	0	0	1
RightHandMiddle3	0	0	0	0	0	0	1
RightHandMiddle4	0	0	0	0	0	0	1
RightHandIndex1	0	0	0	0	0	0	1
RightHandIndex2	0	0	0	0	0	0	1
RightHandIndex3	0	0	0	0	0	0	1
RightHandIndex4	0	0	0	0	0	0	1
RightHandThumb1	0	0	0	0	0	0	1
RightHandThumb2	0	0	0	0	0	0	1
RightHandThumb3	0	0	0	0	0	0	1
RightHandThumb4	0	0	0	0	0	0	1
LeftUpLeg	0	0	0	0	0	0	1
LeftLeg	0	0	0	0	0	0	1
LeftFoot	0	0	0	0	0	0	1
LeftToeBase	0	0	0	0	0	0	1
RightUpLeg	0	0	0	0	0	0	1
RightLeg	0	0	0	0	0	0	1
RightFoot	0	0	0	0	0	0	1
RightToeBase	0	0	0	0	0	0	1
[Hips]
100	-49.016819	800.2981567	168.1302032	-347.0954285	22.24207306	8.200670242	1.0
101	-49.82463837	809.1715088	235.8265991	-350.9964905	17.2564106	4.703091145	1.0
102	-47.77562714	826.6107178	309.232666	-355.7261047	9.960062027	2.55620122	1.0
103	-47.77607346	842.5174561	388.9638062	-360.0002747	3.323578119	2.228717327	1.0
[Spine]
100	0	101.8159943	1.315000057	3.609013796	1.539438605	-2.352627516	1.0
101	0	101.8159943	1.315000057	3.624039888	-1.465715528	-1.282839537	1.0
102	0	101.8159943	1.315000057	3.481562138	-3.431672812	-0.6953940988	1.0
103	0	101.8159943	1.315000057	3.212208271	-4.13635397	-0.4105378687	1.0
[Spine1]
100	0	100.8349991	-10.00800037	7.198191643	2.76366806	-2.82017231	1.0
101	0	100.8349991	-10.00800037	7.260128498	-2.814685106	-0.8957271576	1.0
102	0	100.8349991	-10.00800037	6.98007679	-6.159151077	-0.3851496279	1.0
103	0	100.8349991	-10.00800037	6.460346699	-7.639280796	-0.6927347183	1.0
[Spine2]
100	0	91	-13.73399925	7.198185921	2.763664246	-2.820172548	1.0
101	0	91	-13.73399925	7.260130405	-2.814684868	-0.8957289457	1.0
102	0	91	-13.73399925	6.980076313	-6.159147739	-0.3851501942	1.0
103	0	91	-13.73399925	6.460345268	-7.639278889	-0.6927344799	1.0
[Neck]
100	0	166.7169952	-25.16200066	-3.211257696	-4.112214088	0.151796788	1.0
101	0	166.7169952	-25.16200066	-0.684001863	-1.848222971	-2.971684456	1.0
102	0	166.7169952	-25.16200066	4.7990098	0.06098522991	-4.009822845	1.0
103	0	166.7169952	-25.16200066	9.616820335	1.660773277	-5.268246651	1.0
[Head]
100	0	96.17900085	16.84999847	-42.39277649	-13.1832943	24.98051834	1.0
101	0	96.17900085	16.84999847	-33.6349678	-10.95100212	17.57597923	1.0
102	0	96.17900085	16.84999847	-22.84824944	-8.361289978	9.299182892	1.0
103	0	96.17900085	16.84999847	-10.55018139	-5.691757202	3.151511908	1.0
[LeftEye]
100	30.6760006	64.09500122	92.83599854	0	0	0	1.0
101	30.6760006	64.09500122	92.83599854	0	0	0	1.0
102	30.6760006	64.09500122	92.83599854	0	0	0	1.0
103	30.6760006	64.09500122	92.83599854	0	0	0	1.0
[RightEye]
100	-30.6760006	64.09500122	92.83499908	0	0	0	1.0
101	-30.6760006	64.09500122	92.83499908	0	0	0	1.0
102	-30.6760006	64.09500122	92.83499908	0	0	0	1.0
103	-30.6760006	64.09500122	92.83499908	0	0	0	1.0
[LeftShoulder]
100	45.70400238	109.4599991	-26.28000069	5.279158115	-29.89969826	-11.25790882	1.0
101	45.70400238	109.4599991	-26.28000069	7.100823402	-34.27275848	-13.45254612	1.0
102	45.70400238	109.4599991	-26.28000069	6.410811424	-33.60626602	-12.33812141	1.0
103	45.70400238	109.4599991	-26.28000069	6.147467136	-31.85870552	-12.40689659	1.0
[LeftArm]
100	105.923996	-5.24600029	-22.32099915	-9.886405945	28.84892273	-63.24208832	1.0
101	105.923996	-5.24600029	-22.32099915	-7.788806915	26.68331718	-58.72434998	1.0
102	105.923996	-5.24600029	-22.32099915	-4.267738342	20.74008751	-45.49682617	1.0
103	105.923996	-5.24600029	-22.32099915	-9.371354103	2.82524085	-29.19545937	1.0
[LeftForeArm]
100	278.414978	-0.0009999999311	0	-718.5366821	-36.49922943	719.5400391	1.0
101	278.414978	-0.0009999999311	0	-719.4835815	-32.04932404	719.9738159	1.0
102	278.414978	-0.0009999999311	0	-719.3516846	-29.35127068	719.4608765	1.0
103	278.414978	-0.0009999999311	0	-718.8882446	-27.01888275	718.5420532	1.0
[LeftHand]
100	283.2879944	0	0	-38.66385651	1.598500133	12.8819561	1.0
101	283.2879944	0	0	-37.14478302	10.192029	2.856716156	1.0
102	283.2879944	0	0	-40.71242905	9.887960434	2.021535635	1.0
103	283.2879944	0	0	-46.41397858	0.5730566382	9.616623878	1.0
[LeftHandThumb1]
100	24.6609993	-15.75	26.8239994	2.77187252	-8.350804329	20.49349594	1.0
101	24.6609993	-15.75	26.8239994	3.731019974	-8.375378609	19.70568275	1.0
102	24.6609993	-15.75	26.8239994	4.84614706	-8.384262085	18.74280739	1.0
103	24.6609993	-15.75	26.8239994	6.434464455	-8.422985077	19.28667641	1.0
[LeftHandThumb2]
100	32.29800034	-18.64699936	18.64699936	6.28398037	8.273067474	-13.32073212	1.0
101	32.29800034	-18.64699936	18.64699936	4.793479919	12.03399563	-15.88247299	1.0
102	32.29800034	-18.64699936	18.64699936	2.9159832	16.47523308	-19.17267227	1.0
103	32.29800034	-18.64699936	18.64699936	0.4658727348	20.63955307	-22.89961815	1.0
[LeftHandThumb3]
100	26.52600098	-15.31499958	15.31499958	3.601811159e-06	-8.438974328e-05	-6.943767221e-05	1.0
101	26.52600098	-15.31499958	15.31499958	3.601811159e-06	-8.438974328e-05	-6.943767221e-05	1.0
102	26.52600098	-15.31499958	15.31499958	3.601811159e-06	-8.438974328e-05	-6.943767221e-05	1.0
103	26.52600098	-15.31499958	15.31499958	3.601811159e-06	-8.438974328e-05	-6.943767221e-05	1.0
[LeftHandThumb4]
100	19.54599953	-11.28499985	11.28499985	0	0	0	1.0
101	19.54599953	-11.28499985	11.28499985	0	0	0	1.0
102	19.54599953	-11.28499985	11.28499985	0	0	0	1.0
103	19.54599953	-11.28499985	11.28499985	0	0	0	1.0
[LeftHandIndex1]
100	91.09299469	-5.170999527	22.60099792	-0.5795964003	-1.507603407	-16.8929863	1.0
101	91.09299469	-5.170999527	22.60099792	-1.375547409	-2.738993168	-29.25687218	1.0
102	91.09299469	-5.170999527	22.60099792	-1.876438737	-4.379830837	-43.98155975	1.0
103	91.09299469	-5.170999527	22.60099792	-2.160781145	-6.491730213	-58.08600235	1.0
[LeftHandIndex2]
100	36.76399994	0	0	-0.7564765215	-0.7405118942	-28.11895752	1.0
101	36.76399994	0	0	-1.153725982	-3.096835136	-44.95840454	1.0
102	36.76399994	0	0	-0.6695479155	-5.916188717	-65.04880524	1.0
103	36.76399994	0	0	1.146839857	-8.583580017	-87.68078613	1.0
[LeftHandIndex3]
100	28.83100128	0	0	-1.432096042e-06	3.907105395e-07	1.552835329e-06	1.0
101	28.83100128	0	0	-1.432096042e-06	3.907105395e-07	1.552835329e-06	1.0
102	28.83100128	0	0	-1.432096042e-06	3.907105395e-07	1.552835329e-06	1.0
103	28.83100128	0	0	-1.432096042e-06	3.907105395e-07	1.552835329e-06	1.0
[LeftHandIndex4]
100	23.92700005	0	0	0	0	0	1.0
101	23.92700005	0	0	0	0	0	1.0
102	23.92700005	0	0	0	0	0	1.0
103	23.92700005	0	0	0	0	0	1.0
[LeftHandMiddle1]
100	95.33399963	0	0	-1.077620149	-0.7286777496	-23.91706657	1.0
101	95.33399963	0	0	-1.641025424	-2.186594963	-35.78856659	1.0
102	95.33399963	0	0	-1.887281537	-4.036107063	-49.92110825	1.0
103	95.33399963	0	0	-1.73003459	-5.99731636	-63.959198	1.0
[LeftHandMiddle2]
100	36.98199844	0	0	-0.5352213383	-1.961324334	-24.25133705	1.0
101	36.98199844	0	0	-0.6859872341	-3.774942875	-39.2277565	1.0
102	36.98199844	0	0	-0.2178353071	-5.900028706	-57.0960083	1.0
103	36.98199844	0	0	1.111863375	-7.886723995	-76.60251617	1.0
[LeftHandMiddle3]
100	29.50900078	0	0	0	-3.180554719e-15	-7.951386796e-16	1.0
101	29.50900078	0	0	0	-3.180554719e-15	-7.951386796e-16	1.0
102	29.50900078	0	0	0	-3.180554719e-15	-7.951386796e-16	1.0
103	29.50900078	0	0	0	-3.180554719e-15	-7.951386796e-16	1.0
[LeftHandMiddle4]
100	28.3390007	0	0	0	0	0	1.0
101	28.3390007	0	0	0	0	0	1.0
102	28.3390007	0	0	0	0	0	1.0
103	28.3390007	0	0	0	0	0	1.0
[LeftHandRing1]
100	91.04499817	-0.4390000105	-18.65100098	-3.088891983	4.660795212	-34.31032562	1.0
101	91.04499817	-0.4390000105	-18.65100098	-3.211303711	2.708807468	-45.42680359	1.0
102	91.04499817	-0.4390000105	-18.65100098	-2.981187344	0.3470743895	-58.63385773	1.0
103	91.04499817	-0.4390000105	-18.65100098	-2.144015074	-1.772903204	-71.76834869	1.0
[LeftHandRing2]
100	31.54000092	0	0	1.640074611	-2.474298477	-32.07232285	1.0
101	31.54000092	0	0	2.741155386	-2.792410612	-45.41424179	1.0
102	31.54000092	0	0	4.110089779	-2.813794851	-61.2973175	1.0
103	31.54000092	0	0	5.490817547	-2.359043598	-78.96578217	1.0
[LeftHandRing3]
100	29.37700081	0	0	1.590277359e-15	3.180554719e-15	-7.951386796e-16	1.0
101	29.37700081	0	0	1.590277359e-15	3.180554719e-15	-7.951386796e-16	1.0
102	29.37700081	0	0	1.590277359e-15	3.180554719e-15	-7.951386796e-16	1.0
103	29.37700081	0	0	1.590277359e-15	3.180554719e-15	-7.951386796e-16	1.0
[LeftHandRing4]
100	26.47500038	0	0	0	0	0	1.0
101	26.47500038	0	0	0	0	0	1.0
102	26.47500038	0	0	0	0	0	1.0
103	26.47500038	0	0	0	0	0	1.0
[LeftHandPinky1]
100	80.77799988	-4.887000084	-38.06099701	-3.784702063	9.811079025	-32.22066879	1.0
101	80.77799988	-4.887000084	-38.06099701	-3.826902866	6.952961922	-43.16918945	1.0
102	80.77799988	-4.887000084	-38.06099701	-3.532111406	3.49654007	-56.15001297	1.0
103	80.77799988	-4.887000084	-38.06099701	-2.705643415	0.4444659352	-68.71703339	1.0
[LeftHandPinky2]
100	36	0	0	5.217120647	-4.174679756	-48.7049675	1.0
101	36	0	0	6.737128258	-3.14814043	-60.5560112	1.0
102	36	0	0	8.212132454	-1.534536242	-74.59007263	1.0
103	36	0	0	9.179426193	0.7039228678	-90.5306778	1.0
[LeftHandPinky3]
100	21.14200211	0	0	3.226109357e-06	2.925280342e-06	-5.739977951e-06	1.0
101	21.14200211	0	0	3.226109357e-06	2.925280342e-06	-5.739977951e-06	1.0
102	21.14200211	0	0	3.226109357e-06	2.925280342e-06	-5.739977951e-06	1.0
103	21.14200211	0	0	3.226109357e-06	2.925280342e-06	-5.739977951e-06	1.0
[LeftHandPinky4]
100	19.75699997	0	0	0	0	0	1.0
101	19.75699997	0	0	0	0	0	1.0
102	19.75699997	0	0	0	0	0	1.0
103	19.75699997	0	0	0	0	0	1.0
[RightShoulder]
100	-45.70000076	109.4620056	-26.28000069	1.016650677	5.164179802	1.845082402	1.0
101	-45.70000076	109.4620056	-26.28000069	0.2494338304	0.05393469706	0.7000626326	1.0
102	-45.70000076	109.4620056	-26.28000069	0.3329748213	0.4472134113	0.8267682195	1.0
103	-45.70000076	109.4620056	-26.28000069	0.3612424135	1.387148857	0.4573290944	1.0
[RightArm]
100	-105.9280014	-5.248000145	-22.32099915	-346.5724487	33.58024979	-307.6898193	1.0
101	-105.9280014	-5.248000145	-22.32099915	-347.6481934	37.39346313	-307.6838989	1.0
102	-105.9280014	-5.248000145	-22.32099915	-350.3812256	31.68927956	-304.723114	1.0
103	-105.9280014	-5.248000145	-22.32099915	-355.381134	18.24409294	-305.462738	1.0
[RightForeArm]
100	-278.414978	0	0	1.132222533	83.16126251	2.715850592	1.0
101	-278.414978	0	0	6.723357677	87.92105865	8.627448082	1.0
102	-278.414978	0	0	169.3565063	87.59713745	171.2381134	1.0
103	-278.414978	0	0	170.9090424	84.21429443	172.8044281	1.0
[RightHand]
100	-283.2879944	0	0.0009999999311	24.21707344	24.99518967	8.974597931	1.0
101	-283.2879944	0	0.0009999999311	23.04268074	24.01368904	11.36176586	1.0
102	-283.2879944	0	0.0009999999311	15.13072395	23.33826256	13.27702236	1.0
103	-283.2879944	0	0.0009999999311	3.330223083	22.96573257	10.03702068	1.0
[RightHandPinky1]
100	-80.76699829	-4.885000229	-38.06000137	0.2776173353	14.37129688	108.6845322	1.0
101	-80.76699829	-4.885000229	-38.06000137	0.5158553123	14.63714314	109.1511765	1.0
102	-80.76699829	-4.885000229	-38.06000137	0.6595107317	14.82026958	109.4839706	1.0
103	-80.76699829	-4.885000229	-38.06000137	0.7264948487	14.9120636	109.5929718	1.0
[RightHandPinky2]
100	-36	0	0.0009999999311	14.8574543	1.934501171	96.1611557	1.0
101	-36	0	0.0009999999311	15.0017786	1.666185021	97.80254364	1.0
102	-36	0	0.0009999999311	15.08491039	1.510949254	98.77855682	1.0
103	-36	0	0.0009999999311	15.1128931	1.446917176	99.17411041	1.0
[RightHandPinky3]
100	-21.14200211	0	0	-1.590277359e-15	0	-7.951386796e-16	1.0
101	-21.14200211	0	0	-1.590277359e-15	0	-7.951386796e-16	1.0
102	-21.14200211	0	0	-1.590277359e-15	0	-7.951386796e-16	1.0
103	-21.14200211	0	0	-1.590277359e-15	0	-7.951386796e-16	1.0
[RightHandPinky4]
100	-19.75699997	0	0	0	0	0	1.0
101	-19.75699997	0	0	0	0	0	1.0
102	-19.75699997	0	0	0	0	0	1.0
103	-19.75699997	0	0	0	0	0	1.0
[RightHandRing1]
100	-91.03599548	-0.4390000105	-18.65100098	-1.930958867	10.40639019	107.5509949	1.0
101	-91.03599548	-0.4390000105	-18.65100098	-1.782418966	10.55980492	108.0293274	1.0
102	-91.03599548	-0.4390000105	-18.65100098	-1.687329412	10.66703701	108.3834457	1.0
103	-91.03599548	-0.4390000105	-18.65100098	-1.639917254	10.7224865	108.5150681	1.0
[RightHandRing2]
100	-31.54000092	0	0	8.289384842	3.829696894	84.19689178	1.0
101	-31.54000092	0	0	8.463763237	3.752951622	85.94997406	1.0
102	-31.54000092	0	0	8.565108299	3.711542845	86.95887756	1.0
103	-31.54000092	0	0	8.597271919	3.69852972	87.27865601	1.0
[RightHandRing3]
100	-29.37700081	0	0	5.740008078e-07	-7.531911024e-07	-2.69121324e-06	1.0
101	-29.37700081	0	0	5.740008078e-07	-7.531911024e-07	-2.69121324e-06	1.0
102	-29.37700081	0	0	5.740008078e-07	-7.531911024e-07	-2.69121324e-06	1.0
103	-29.37700081	0	0	5.740008078e-07	-7.531911024e-07	-2.69121324e-06	1.0
[RightHandRing4]
100	-26.47500038	0	0	0	0	0	1.0
101	-26.47500038	0	0	0	0	0	1.0
102	-26.47500038	0	0	0	0	0	1.0
103	-26.47500038	0	0	0	0	0	1.0
[RightHandMiddle1]
100	-95.32500458	0	0	0.2055335194	7.90827322	102.7820129	1.0
101	-95.32500458	0	0	0.2524103522	7.944291592	103.2299805	1.0
102	-95.32500458	0	0	0.2886992097	7.970859051	103.5791626	1.0
103	-95.32500458	0	0	0.3005748093	7.978888035	103.6970139	1.0
[RightHandMiddle2]
100	-36.98199844	0	0	-0.3005679846	7.636909485	91.95215607	1.0
101	-36.98199844	0	0	-0.1270875484	7.782851219	94.05448914	1.0
102	-36.98199844	0	0	-0.0283793509	7.85618639	95.3063736	1.0
103	-36.98199844	0	0	0.007903392427	7.881198883	95.77758789	1.0
[RightHandMiddle3]
100	-29.50900078	0	0	1.856611448e-06	-0.002022909233	1.577868488e-06	1.0
101	-29.50900078	0	0	1.856611448e-06	-0.002022909233	1.577868488e-06	1.0
102	-29.50900078	0	0	1.856611448e-06	-0.002022909233	1.577868488e-06	1.0
103	-29.50900078	0	0	1.856611448e-06	-0.002022909233	1.577868488e-06	1.0
[RightHandMiddle4]
100	-28.3390007	0	0.0009999999311	0	0	0	1.0
101	-28.3390007	0	0.0009999999311	0	0	0	1.0
102	-28.3390007	0	0.0009999999311	0	0	0	1.0
103	-28.3390007	0	0.0009999999311	0	0	0	1.0
[RightHandIndex1]
100	-91.08300018	-5.167999744	22.60099792	3.533225536	1.993095517	108.0746231	1.0
101	-91.08300018	-5.167999744	22.60099792	3.530799866	1.95871985	108.5703583	1.0
102	-91.08300018	-5.167999744	22.60099792	3.539265633	1.936537862	108.9385071	1.0
103	-91.08300018	-5.167999744	22.60099792	3.540374994	1.924148917	109.0524597	1.0
[RightHandIndex2]
100	-36.76399994	0	0	-1.934666991	7.049739361	91.68948364	1.0
101	-36.76399994	0	0	-1.725641727	7.300681591	94.20874786	1.0
102	-36.76399994	0	0	-1.601905942	7.432766438	95.74068451	1.0
103	-36.76399994	0	0	-1.5520854	7.482187271	96.3678894	1.0
[RightHandIndex3]
100	-28.83100128	0	0	-3.180554719e-15	0	0	1.0
101	-28.83100128	0	0	-3.180554719e-15	0	0	1.0
102	-28.83100128	0	0	-3.180554719e-15	0	0	1.0
103	-28.83100128	0	0	-3.180554719e-15	0	0	1.0
[RightHandIndex4]
100	-23.92700005	0	0	0	0	0	1.0
101	-23.92700005	0	0	0	0	0	1.0
102	-23.92700005	0	0	0	0	0	1.0
103	-23.92700005	0	0	0	0	0	1.0
[RightHandThumb1]
100	-24.64799881	-15.72700024	26.82600021	17.03016663	27.61706543	-7.669930458	1.0
101	-24.64799881	-15.72700024	26.82600021	17.18157959	27.67149162	-7.451477051	1.0
102	-24.64799881	-15.72700024	26.82600021	17.33412552	27.79313087	-7.380218983	1.0
103	-24.64799881	-15.72700024	26.82600021	17.54588127	28.06651306	-7.509550571	1.0
[RightHandThumb2]
100	-32.29800034	-18.64699936	18.64699936	-3.705535173	-31.22546768	64.9691925	1.0
101	-32.29800034	-18.64699936	18.64699936	-4.228653908	-31.90890884	65.76313782	1.0
102	-32.29800034	-18.64699936	18.64699936	-4.59623909	-32.31475067	66.41368103	1.0
103	-32.29800034	-18.64699936	18.64699936	-4.827064037	-32.49134445	67.08655548	1.0
[RightHandThumb3]
100	-26.52600098	-15.31399918	15.31399918	-3.81245151e-08	-0.00121095567	-0.001221005921	1.0
101	-26.52600098	-15.31399918	15.31399918	-3.81245151e-08	-0.00121095567	-0.001221005921	1.0
102	-26.52600098	-15.31399918	15.31399918	-3.81245151e-08	-0.00121095567	-0.001221005921	1.0
103	-26.52600098	-15.31399918	15.31399918	-3.81245151e-08	-0.00121095567	-0.001221005921	1.0
[RightHandThumb4]
100	-19.54599953	-11.28499985	11.28499985	0	0	0	1.0
101	-19.54599953	-11.28499985	11.28499985	0	0	0	1.0
102	-19.54599953	-11.28499985	11.28499985	0	0	0	1.0
103	-19.54599953	-11.28499985	11.28499985	0	0	0	1.0
[LeftUpLeg]
100	82.07800293	-67.51699829	-15.99599934	-45.13036728	3.569464445	2.786113262	1.0
101	82.07800293	-67.51699829	-15.99599934	-34.64294815	6.740062237	6.831160069	1.0
102	82.07800293	-67.51699829	-15.99599934	-21.44162941	9.658197403	9.258038521	1.0
103	82.07800293	-67.51699829	-15.99599934	-7.790411949	12.44920731	10.21385002	1.0
[LeftLeg]
100	0	-443.7049866	2.845999956	76.94003296	-2.700586796	-7.403624535	1.0
101	0	-443.7049866	2.845999956	74.25176239	-4.293913841	-7.154639244	1.0
102	0	-443.7049866	2.845999956	69.7882843	-5.513496399	-5.06035614	1.0
103	0	-443.7049866	2.845999956	63.7072525	-6.805088997	-2.810613871	1.0
[LeftFoot]
100	0	-444.2789917	-29.8219986	-42.40079498	-11.66963196	1.890790343	1.0
101	0	-444.2789917	-29.8219986	-45.14788055	-10.0399332	-0.5758770108	1.0
102	0	-444.2789917	-29.8219986	-40.81867981	-9.104077339	-3.463676691	1.0
103	0	-444.2789917	-29.8219986	-32.9162941	-8.722003937	-6.073853016	1.0
[LeftToeBase]
100	0	-87.28699493	107.1060028	-1.723549485	-2.630648908e-07	1.679609454e-06	1.0
101	0	-87.28699493	107.1060028	-4.980284691	2.736249144e-06	4.995719792e-06	1.0
102	0	-87.28699493	107.1060028	-11.59638405	-0.002848807722	-0.007579131052	1.0
103	0	-87.28699493	107.1060028	-19.70989227	0.03100442514	0.08251941204	1.0
[RightUpLeg]
100	-82.07800293	-67.51699829	-15.99599934	-36.93512344	-11.62396049	-13.97367001	1.0
101	-82.07800293	-67.51699829	-15.99599934	-48.39740372	-8.206802368	-14.26528454	1.0
102	-82.07800293	-67.51699829	-15.99599934	-55.50849152	-4.506438732	-13.11372089	1.0
103	-82.07800293	-67.51699829	-15.99599934	-56.48162842	-1.119248748	-10.97778225	1.0
[RightLeg]
100	0	-443.7049866	2.861999989	92.53011322	5.530447483	-10.81173134	1.0
101	0	-443.7049866	2.861999989	87.48505402	5.812461853	-11.11632061	1.0
102	0	-443.7049866	2.861999989	74.19078827	5.182578564	-9.817707062	1.0
103	0	-443.7049866	2.861999989	53.87259674	6.480218887	-7.667119503	1.0
[RightFoot]
100	0	-444.2770081	-29.83799934	-25.75119209	-13.83528996	0.993077457	1.0
101	0	-444.2770081	-29.83799934	-28.60584068	-9.895557404	7.113958359	1.0
102	0	-444.2770081	-29.83799934	-24.94637299	-5.599457264	9.29821682	1.0
103	0	-444.2770081	-29.83799934	-18.65898514	-2.130259275	13.14735603	1.0
[RightToeBase]
100	0	-87.28699493	107.1060028	-5.47424078	-1.269820018e-06	1.839119818e-06	1.0
101	0	-87.28699493	107.1060028	-3.904026508	4.870609587e-07	1.175652642e-06	1.0
102	0	-87.28699493	107.1060028	-5.376048565	4.480247298e-06	3.319637244e-06	1.0
103	0	-87.28699493	107.1060028	-5.260643482	2.540400601e-08	1.084993642e-06	1.0
[EndOfFile]
